<?xml version="1.0" encoding="utf-8"?>
<!-- Generator: Adobe Illustrator 21.0.0, SVG Export Plug-In . SVG Version: 6.00 Build 0)  -->
<svg version="1.1" id="Capa_1" xmlns="http://www.w3.org/2000/svg" xmlns:xlink="http://www.w3.org/1999/xlink" x="0px" y="0px"
	 viewBox="0 0 40 40" style="enable-background:new 0 0 40 40;" xml:space="preserve">
<style type="text/css">
	.st0{fill:#FFFFFF;}
	.st1{fill:#4169FF;}
</style>
<rect x="10.9" y="10.7" class="st0" width="18.1" height="18.7"/>
<g>
	<path class="st1" d="M20,0C9,0,0,9,0,20s9,20,20,20s20-9,20-20S31,0,20,0z M27.3,22.6c0.7,0.7,0.7,1.9,0,2.6l-2.1,2.1
		c-0.4,0.4-0.8,0.5-1.3,0.5s-0.9-0.2-1.3-0.5L20,24.7l-2.6,2.6c-0.4,0.4-0.8,0.5-1.3,0.5s-0.9-0.2-1.3-0.5l-2.1-2.1
		c-0.7-0.7-0.7-1.9,0-2.6l2.6-2.6l-2.6-2.6c-0.7-0.7-0.7-1.9,0-2.6l2.1-2.1c0.7-0.7,1.9-0.7,2.6,0l2.6,2.6l2.6-2.6
		c0.7-0.7,1.9-0.7,2.6,0l2.1,2.1c0.7,0.7,0.7,1.9,0,2.6L24.7,20L27.3,22.6z"/>
</g>
</svg>
